<?xml version="1.0" encoding="utf-8"?>
<!-- Generator: Adobe Illustrator 24.3.0, SVG Export Plug-In . SVG Version: 6.00 Build 0)  -->
<svg version="1.1" id="Layer_1" xmlns="http://www.w3.org/2000/svg" xmlns:xlink="http://www.w3.org/1999/xlink" x="0px" y="0px"
	 viewBox="0 0 595.3 841.9" style="enable-background:new 0 0 595.3 841.9;" xml:space="preserve">
<style type="text/css">
	.st0{fill:#E73550;}
	.st1{fill:#31333A;}
	.st2{fill:#E94967;}
	.st3{fill:#43454C;}
	.st4{fill:#EF7886;}
	.st5{fill:#E83E5A;}
	.st6{fill:#E7304A;}
	.st7{fill:#252626;}
	.st8{fill:#E94460;}
	.st9{fill:#E83955;}
	.st10{fill:#ED8C8F;}
	.st11{fill:#E6ABA0;}
	.st12{fill:#3A3C43;}
	.st13{fill:#EA506E;}
	.st14{font-family:'HelveticaNowDisplay-LightIta';}
	.st15{font-size:49.4244px;}
	.st16{letter-spacing:4;}
</style>
<g>
	<path class="st0" d="M426.9,552.9c14.1-18.8,30.2-35.9,45.5-53.8c21.9-25.5,44-50.8,66-76.2c0,41.6-0.1,83.3,0.1,124.9
		c0,4.2-1,5.2-5.2,5.2C497.8,552.8,462.3,552.9,426.9,552.9z"/>
	<g>
		<path class="st1" d="M106.3,277.2c8.1,3.3,14.6,8.4,19.9,15.7c5.7,7.8,14.3,13.2,19.3,21.8c-2.6,1.5-1.7,3.5-1.3,5.8
			c4.8,25.7,9.5,51.4,14.3,77.2c-6.5,7.5-11.6,16.3-20,22c-4.3-0.3-4.4-4.1-4.9-6.8c-2.6-12.9-4.8-26-7.2-39c7.9-10.5,7.9-10.5-1-21
			c-3.9-4.7-7.8-9.4-11.8-14c5.7-5.5,0.7-11.5,0-16.9C111.7,307,107.5,292.4,106.3,277.2z"/>
		<path class="st2" d="M399.9,296.4c11.7-16,26.4-25.5,47.2-21.9c0.4,8.5-1.2,17.2,1.8,25.6c-14.1,17.4-28.5,34.5-43.7,50.9
			c-1.6-4.8-2.1-9.7-2-14.7c0.2-10.8,0.1-21.7,0-32.5C403.1,300.9,404.6,297.2,399.9,296.4z"/>
		<path class="st3" d="M123.8,437.9c-9.3,10.3-20.7,15.9-34.9,15.5c-9.7-0.3-19.5-0.1-32-0.1c19.7-22.5,37.9-43.2,56-63.9
			c0.6,2.7,1,5.5,1.7,8.1C118.4,410.8,118.3,425,123.8,437.9z"/>
		<path class="st4" d="M403.2,373.9c10.2-7.3,21.8-9.8,34.1-10c8.3-0.1,16.7,1.5,24.7-2.9c0.5,0.7,1,1.4,1.5,2.2
			c-19.4,22.4-38.8,44.8-58.2,67.3c-1.9-3.3-2.1-6.8-2.1-10.5C403.3,404.6,403.2,389.3,403.2,373.9z"/>
		<path class="st5" d="M317.4,372.9c-9,11.7-18.6,22.9-28.8,33.6c0-14.4-0.1-28.8-0.1-43.3c0-4.7-0.1-9.4-3.8-13
			c8.6-11.1,17.8-21.7,27.5-31.8c4.7,0.8,3.3,4.5,3.3,7.3c0.1,10.3-0.1,20.6,0.1,30.9C315.6,362,314.3,367.7,317.4,372.9z"/>
		<path class="st5" d="M247.9,373.8c-8.4,10.8-17.2,21.2-26.7,31c-2-3.3-2-6.9-1.9-10.5c0.1-12.3,0.1-24.6,0-36.9
			c0-2.9,1.1-6.5-3.6-7.2c8.6-11.1,17.8-21.7,27.5-31.9c5.1,1.3,2.8,5.5,3,8.4C247.1,342.5,244.5,358.3,247.9,373.8z"/>
		<path class="st2" d="M372.9,308.4c-9.6,12.2-19.6,24.1-30.4,35.3c-2.8-2.4-1.7-5.7-1.7-8.6c-0.1-12.8,0-25.7-0.1-38.5
			c0-2.9,0.9-6.5-3.7-7.1c9.7-10.2,20.6-17.8,35.8-15C372.9,285.8,372.9,297.1,372.9,308.4z"/>
		<path class="st6" d="M319.1,446.8c-5.1,4.4-11.3,6.2-17.8,6.3c-11.8,0.2-23.5,0-37.6,0c18-20.5,34.9-39.7,51.7-58.9
			c3.2,14.3,1.1,28.8,1.8,43.2C317.3,440.6,315.9,444.2,319.1,446.8z"/>
		<path class="st0" d="M168.7,404.4c8.8-11.1,18-22,27.9-32.2c4.6,15.3,1.3,31.1,2.4,46.6c0.2,3.2-1.3,6.8,2,9.3
			c-7.5,10.5-16.3,19.4-29.1,23.2c0-13.2,0.1-26.3,0-39.5C171.9,409.1,173.4,405.4,168.7,404.4z"/>
		<path class="st7" d="M158.5,397.7c-4.7-25.7-9.4-51.5-14.3-77.2c-0.4-2.3-1.3-4.3,1.3-5.8c13.1,15,26.2,30,39.4,44.9
			c2.8,3.2,2.3,5.5-0.4,8.5C175.6,377.9,167.1,387.8,158.5,397.7z"/>
		<path class="st5" d="M385.2,374.3c-8.8,11-17.7,21.9-27.5,32c0-16.2,0-32.3-0.1-48.5c0-3.2,0.9-7-4.1-7.7
			c7.6-9.9,15.7-19.5,24.5-28.4c5.1-0.4,5,3,5,6.5c-0.1,12.5-0.1,25.1,0,37.6C383,368.8,382,372.2,385.2,374.3z"/>
		<path class="st8" d="M337,289.5c4.6,0.6,3.7,4.2,3.7,7.1c0.1,12.8,0,25.7,0.1,38.5c0,2.9-1.1,6.2,1.7,8.6
			c-7.9,10.2-16,20.1-25.1,29.2c-3.1-5.2-1.8-10.9-1.9-16.3c-0.2-10.3,0-20.6-0.1-30.9c0-2.8,1.4-6.5-3.3-7.3
			C320,308.3,327.9,298.4,337,289.5z"/>
		<path class="st2" d="M300.2,313c-8.5,10.6-17,21.2-26.6,30.8c-4-2.9-3.7-7.1-3.7-11.3c-0.1-14.7-0.2-29.4-0.4-44.1
			c8.1-7.9,16.3-15.6,29.1-14C298.7,287.3,297.9,300.2,300.2,313z"/>
		<path class="st8" d="M269.5,288.4c0.1,14.7,0.3,29.4,0.4,44.1c0,4.2-0.2,8.4,3.7,11.3c-7.9,10.5-16.6,20.4-25.7,30
			c-3.4-15.6-0.7-31.4-1.7-47c-0.2-3,2.1-7.1-3-8.4C251.4,308,259.8,297.6,269.5,288.4z"/>
		<path class="st0" d="M266.7,432c-6.6,9-14.8,15.9-25.6,19.3c-3.3-12.2-0.9-24.8-1.7-37.1c-0.2-2.9,1.8-7-3.2-8.1
			c7.9-10,15.9-19.9,25-28.8c5.1,0.9,3.4,5,3.6,8C265.7,400.8,262.8,416.6,266.7,432z"/>
		<path class="st9" d="M266.7,432c-3.9-15.4-1-31.2-2-46.7c-0.2-3,1.5-7.1-3.6-8c7.3-9.5,14.9-18.7,23.4-27.1
			c3.7,3.6,3.8,8.3,3.8,13c0,14.4,0.1,28.8,0.1,43.3C281.9,415.5,274.6,424,266.7,432z"/>
		<path class="st10" d="M403.2,373.9c0,15.4,0.1,30.7,0,46.1c0,3.7,0.1,7.2,2.1,10.5c-6.2,8.7-13.6,15.9-23.9,19.6
			c-3-2.7-1.6-6.3-1.8-9.5c-0.9-13.3,1.8-26.7-1.8-39.8C385.6,391.3,392.3,380.6,403.2,373.9z"/>
		<path class="st0" d="M319.1,446.8c-3.3-2.6-1.8-6.2-2-9.3c-0.7-14.4,1.4-28.9-1.8-43.2c5.6-7.8,12.1-14.9,18.8-21.8
			c5.5,1.6,4.8,6.2,4.8,10.3c0.1,15.1,0,30.2,0,45.3C333.6,435.5,327.5,442.3,319.1,446.8z"/>
		<path class="st11" d="M377.8,400.8c3.6,13.1,1,26.6,1.8,39.8c0.2,3.2-1.2,6.8,1.8,9.5c-7.4,4.8-15.6,2.9-23.6,3.2
			c-7.5,0.3-15,0.1-25.4,0.1C348.6,434.6,363.2,417.7,377.8,400.8z"/>
		<path class="st8" d="M385.2,374.3c-3.3-2.1-2.2-5.5-2.2-8.4c-0.1-12.5-0.1-25.1,0-37.6c0-3.6,0.1-7-5-6.5
			c6.8-8.9,14-17.4,21.9-25.3c4.7,0.8,3.3,4.5,3.3,7.3c0.1,10.8,0.2,21.7,0,32.5c-0.1,5.1,0.4,10,2,14.7
			C399.1,359.2,392.4,367,385.2,374.3z"/>
		<path class="st9" d="M201,428.2c-3.3-2.5-1.8-6.2-2-9.3c-1.1-15.5,2.3-31.3-2.4-46.6c5.9-7.7,11.8-15.3,19-21.9
			c4.6,0.7,3.6,4.3,3.6,7.2c0.1,12.3,0.1,24.6,0,36.9c0,3.7-0.1,7.3,1.9,10.5C215,413.1,208.4,421,201,428.2z"/>
		<path class="st6" d="M168.7,404.4c4.7,0.9,3.1,4.7,3.1,7.5c0.1,13.2,0,26.3,0,39.5c-0.6,0.1-1.1,0.2-1.7,0.3
			c-3.4,0.4-7-1.2-10.1,1.3c-10.6,0-21.2,0-33.6,0C141,436,154.1,419.6,168.7,404.4z"/>
		<path class="st9" d="M339.1,427.9c0-15.1,0-30.2,0-45.3c0-4.1,0.7-8.7-4.8-10.3c5.9-7.9,12.1-15.6,19.3-22.3
			c5,0.6,4.1,4.5,4.1,7.7c0.1,16.2,0.1,32.3,0.1,48.5C352,413.9,345.8,421.2,339.1,427.9z"/>
		<path class="st6" d="M236.2,406.1c5.1,1.1,3,5.2,3.2,8.1c0.9,12.4-1.6,24.9,1.7,37.1c-1.8,0.4-3.5,0.8-5.3,1.2
			c-2.2-1.3-4.4-1.5-6.4,0.4c-10.8,0-21.6,0-34.5,0C209.4,436.4,222.8,421.3,236.2,406.1z"/>
		<path class="st3" d="M99.1,321.8c-13.5-15.2-27-30.4-41.6-46.9c13.3-0.9,25-1.2,36.8-0.2c0.3,12.6,4,24.6,6,37
			C100.8,315.2,102.4,318.8,99.1,321.8z"/>
		<path class="st4" d="M489.4,274.8c12.1-1.3,18.6,1.3,22.7,9.5c4,7.9,3.9,15.9-1.6,22.8c-5.3,6.6-12.8,8.4-21.1,6
			C489.4,300.3,489.4,287.6,489.4,274.8z"/>
		<path class="st12" d="M123.8,437.9c-5.5-12.9-5.4-27.1-9.2-40.4c-0.7-2.7-1.1-5.4-1.7-8.1c4-5.6,8.3-10.8,13.4-15.5
			c2.4,13,4.6,26,7.2,39c0.5,2.6,0.6,6.5,4.9,6.8C135.2,427.1,129.3,432.3,123.8,437.9z"/>
		<path class="st13" d="M300.2,313c-2.3-12.8-1.5-25.7-1.6-38.5c11.1,0,22.2,0,35.4,0C321.8,288.3,311,300.7,300.2,313z"/>
		<path class="st12" d="M99.1,321.8c3.3-3,1.8-6.6,1.2-10.1c-2-12.3-5.7-24.4-6-37c4,0.8,8,1.7,12,2.5c1.3,15.1,5.4,29.8,7.3,44.8
			c0.7,5.4,5.7,11.3,0,16.9C108.7,333.2,103.9,327.5,99.1,321.8z"/>
		<path class="st13" d="M372.9,308.4c0-11.3-0.1-22.6-0.1-33.9c9.2,0,18.4,0,30,0C392.2,286.5,382.5,297.5,372.9,308.4z"/>
		<path class="st10" d="M489.4,274.8c0,12.8,0,25.5,0,38.3c-5.6-2.3-11.2-4.6-16.8-6.9c0-5.5-0.1-11-0.1-16.5
			C477.3,283.8,480.5,276.1,489.4,274.8z"/>
		<path class="st13" d="M448.9,300.1c-3-8.3-1.4-17-1.8-25.6c7.5,0,15,0,24.5,0C463.4,283.7,456.2,291.9,448.9,300.1z"/>
		<path class="st11" d="M472.5,289.6c0,5.5,0.1,11,0.1,16.5c-3.7-0.6-7.5-1.2-12-2C463.9,298.4,467.6,293.6,472.5,289.6z"/>
	</g>
	<path class="st0" d="M160.2,453c3.1-2.5,6.7-1,10.1-1.3C167.1,453.7,163.6,453.1,160.2,453z"/>
	<path class="st0" d="M229.4,453c2-1.9,4.2-1.7,6.4-0.4C233.7,452.7,231.6,452.8,229.4,453z"/>
	<text transform="matrix(1 0 0 1 57.4942 553.0287)" class="st9 st14 st15 st16">DevMadeEz</text>
</g>
</svg>
